<?xml version="1.0"?>

<!DOCTYPE svg PUBLIC '-//W3C//DTD SVG 1.0//EN' 'http://www.w3.org/TR/2001/REC-SVG-20010904/DTD/svg10.dtd'>
<svg fill-opacity="1" xmlns:xlink="http://www.w3.org/1999/xlink" color-rendering="auto" color-interpolation="auto" text-rendering="auto" stroke="black" stroke-linecap="square" stroke-miterlimit="10" shape-rendering="auto" stroke-opacity="1" fill="black" stroke-dasharray="none" font-weight="normal" stroke-width="1" xmlns="http://www.w3.org/2000/svg" font-family="&apos;Dialog&apos;" font-style="normal" stroke-linejoin="miter" font-size="12" stroke-dashoffset="0" image-rendering="auto">
  <!--Unicode Character 'BOOKMARK' (U+1F516)-->
  <defs id="genericDefs" />
  <g>
    <g>
      <path d="M64.125 181.9688 L51.3281 218.8125 L26.2969 146.5312 L35.7188 146.5312 Q35.7188 151.0312 40.2188 151.0312 Q44.7188 151.0312 44.7188 146.5312 L51.8906 146.5312 L64.125 181.9688 ZM110.25 418.3594 L106.875 420.6094 L66.375 394.3125 L25.875 420.6094 L22.5 418.3594 L22.5 225.9844 L24.6094 223.7344 L54.2812 223.7344 Q54.9844 221.3438 55.8281 218.8125 L80.8594 146.5312 L88.3125 146.5312 Q88.3125 151.0312 92.8125 151.0312 Q97.3125 151.0312 97.3125 146.5312 L106.4531 146.5312 L81.4219 218.8125 Q80.7188 220.7812 80.1562 223.7344 L108.1406 223.7344 L110.25 225.9844 L110.25 418.3594 ZM101.8125 407.25 L101.8125 232.1719 L80.4375 232.1719 Q81 235.8281 81 238.9219 Q81 254.1094 66.5156 253.8281 Q52.1719 253.5469 52.1719 237.0938 Q52.1719 234.7031 52.4531 232.1719 L30.9375 232.1719 L30.9375 407.25 L66.375 384.1875 L101.8125 407.25 Z" stroke="none" />
    </g>
  </g>
</svg>
